<?xml version="1.0" standalone="no"?>
<!DOCTYPE svg PUBLIC "-//W3C//DTD SVG 20010904//EN"
 "http://www.w3.org/TR/2001/REC-SVG-20010904/DTD/svg10.dtd">
<svg version="1.0" xmlns="http://www.w3.org/2000/svg"
 width="700.000000pt" height="700.000000pt" viewBox="0 0 700.000000 700.000000"
 preserveAspectRatio="xMidYMid meet">
<metadata>
Created by potrace 1.11, written by Peter Selinger 2001-2013
</metadata>
<g transform="translate(0.000000,700.000000) scale(0.100000,-0.100000)"
fill="#000000" stroke="none">
<path d="M4343 6559 c-56 -10 -94 -31 -129 -72 -41 -46 -22 9 -214 -617 -45
-146 -88 -285 -96 -310 -7 -25 -70 -229 -140 -455 -69 -225 -133 -432 -142
-460 -8 -27 -16 -55 -18 -61 -1 -5 -20 -68 -42 -140 -71 -225 -278 -897 -297
-964 -7 -25 -25 -81 -39 -125 -35 -112 -266 -860 -281 -915 -7 -25 -25 -81
-38 -125 -37 -117 -91 -288 -93 -300 -2 -9 -52 -170 -174 -565 -23 -74 -43
-139 -45 -145 -1 -5 -5 -17 -8 -25 -3 -8 -10 -31 -15 -50 -6 -19 -45 -147 -87
-285 -96 -310 -98 -351 -16 -438 99 -107 280 -83 347 46 13 24 74 216 184 577
21 69 49 161 63 205 14 44 30 96 35 115 9 30 148 484 202 655 10 33 80 260
155 505 177 577 210 686 245 795 15 50 35 113 43 140 9 28 97 316 197 640 100
325 198 642 217 705 19 63 91 297 160 520 270 875 275 894 274 941 -1 59 -21
106 -63 145 -57 54 -118 75 -185 63z"/>
<path d="M1895 5235 c-22 -8 -42 -15 -45 -15 -2 0 -359 -354 -793 -787 -836
-835 -837 -835 -837 -927 0 -101 -35 -62 814 -914 843 -845 841 -842 935 -842
158 1 266 177 194 316 -10 20 -333 351 -718 735 l-699 698 700 700 c397 397
708 716 719 738 88 169 -88 363 -270 298z"/>
<path d="M4959 5236 c-19 -7 -45 -19 -57 -27 -82 -58 -112 -185 -66 -274 10
-19 334 -350 719 -735 l699 -700 -697 -697 c-384 -384 -707 -714 -719 -733
-27 -46 -32 -135 -8 -187 57 -125 213 -171 323 -94 23 17 391 380 818 808 561
562 781 789 793 817 22 52 20 122 -5 176 -29 65 -1562 1599 -1633 1635 -55 28
-111 31 -167 11z"/>
</g>
</svg>
